/* XPM */
static char *c2ac9c1df54f4b34c14e57e76c0847b7[] = {
/* columns rows colors chars-per-pixel */
"64 64 152 2 ",
"   c #7E0606",
".  c #7F400F",
"X  c #820606",
"o  c #8D0606",
"O  c #910606",
"+  c #930606",
"@  c #940606",
"#  c #9A0707",
"$  c #9D0707",
"%  c #9F0707",
"&  c #A20707",
"*  c #A40707",
"=  c #A50707",
"-  c #AA0707",
";  c #AB0808",
":  c #B30707",
">  c #B20808",
",  c #B50808",
"<  c #B80808",
"1  c #B90808",
"2  c #BA0808",
"3  c #BD0808",
"4  c #C20909",
"5  c #C40808",
"6  c #CA0909",
"7  c #CF0909",
"8  c #D00909",
"9  c #D20909",
"0  c #D30909",
"q  c #D40909",
"w  c #D50909",
"e  c #D60A0A",
"r  c #DA0909",
"t  c #DB0909",
"y  c #D80A0A",
"u  c #DE0909",
"i  c #DD0A0A",
"p  c #DE0A0A",
"a  c #DF0A0A",
"s  c #E30A0A",
"d  c #E40A0A",
"f  c #E60A0A",
"g  c #E70A0A",
"h  c #EA0A0A",
"j  c #EC0A0A",
"k  c #EF0A0A",
"l  c #EF0B0B",
"z  c #F00A0A",
"x  c #F00B0B",
"c  c #864310",
"v  c #8D4D16",
"b  c #904810",
"n  c #9A4E11",
"m  c #965217",
"M  c #9E5012",
"N  c #9F5013",
"B  c #9D5619",
"V  c #A05113",
"C  c #A45314",
"Z  c #AB5614",
"A  c #AD5714",
"S  c #AF5815",
"D  c #A45A1A",
"F  c #A65B1A",
"G  c #AB5D1A",
"H  c #B05915",
"J  c #B35A14",
"K  c #B45B15",
"L  c #B75C15",
"P  c #B85D16",
"I  c #BA5E16",
"U  c #AB601B",
"Y  c #BF6017",
"T  c #B4621C",
"R  c #B6631C",
"E  c #B9651D",
"W  c #BA661D",
"Q  c #BA641F",
"!  c #BD671E",
"~  c #BE681E",
"^  c #BF691E",
"/  c #C26217",
"(  c #C46317",
")  c #C56317",
"_  c #C56417",
"`  c #C1601B",
"'  c #C96518",
"]  c #C96618",
"[  c #CA6618",
"{  c #CC6718",
"}  c #CD6718",
"|  c #CD6719",
" . c #C16A1E",
".. c #CD6818",
"X. c #CE6818",
"o. c #D16A18",
"O. c #D16A19",
"+. c #D26A18",
"@. c #D46B19",
"#. c #D56C19",
"$. c #D76D19",
"%. c #D96D19",
"&. c #D86E19",
"*. c #DA6E1A",
"=. c #DA6F1A",
"-. c #DB6F1A",
";. c #DC701A",
":. c #DD701A",
">. c #DE701A",
",. c #DF711A",
"<. c #DE711B",
"1. c #D5791C",
"2. c #E0711A",
"3. c #E1721A",
"4. c #E1721B",
"5. c #E2721A",
"6. c #E2731A",
"7. c #E2721B",
"8. c #E2731B",
"9. c #E3731B",
"0. c #C76D20",
"q. c #C86D20",
"w. c #C96D20",
"e. c #C86E20",
"r. c #C96E20",
"t. c #CC7020",
"y. c #CD7020",
"u. c #CD7021",
"i. c #CF7020",
"p. c #D17220",
"a. c #D27321",
"s. c #D37321",
"d. c #D37421",
"f. c #D47421",
"g. c #D77522",
"h. c #DA7722",
"j. c #DC7822",
"k. c #DF7A23",
"l. c #E37C24",
"z. c #E67E24",
"x. c #E77E24",
"c. c #EA7F23",
"v. c #E87F25",
"b. c #E97F25",
"n. c #E88024",
"m. c #E98024",
"M. c #E98025",
"N. c #EA8024",
"B. c #EB8024",
"V. c #EA8124",
"C. c #EA8025",
"Z. c None",
/* pixels */
"Z.Z.Z.Z.Z.Z.Z.Z.Z.Z.Z.Z.Z.Z.Z.Z.Z.Z.Z.Z.Z.Z.Z.Z.Z.Z.Z.Z.Z.H 9.9.9.9.. Z.Z.Z.Z.Z.Z.Z.Z.Z.Z.Z.Z.Z.Z.Z.Z.Z.Z.Z.Z.Z.Z.Z.Z.Z.Z.Z.Z.Z.",
"Z.Z.Z.Z.Z.Z.Z.Z.Z.Z.Z.Z.Z.Z.Z.Z.Z.Z.Z.Z.Z.Z.Z.Z.S 9.9.9.9.9.9.9.9.9.9.9.9.9.9.Z.Z.Z.Z.Z.Z.Z.Z.Z.Z.Z.Z.Z.Z.Z.Z.Z.Z.Z.Z.Z.Z.Z.Z.Z.",
"Z.Z.Z.Z.Z.Z.Z.Z.Z.Z.Z.Z.Z.Z.Z.Z.Z.Z.Z.Z.Z.Z.9.9.9.9.9.9.9.9.9.9.9.9.9.9.9.9.9.9.9.X.Z.Z.Z.Z.Z.Z.Z.Z.Z.Z.Z.Z.Z.Z.Z.Z.Z.Z.Z.Z.Z.Z.",
"Z.Z.Z.Z.Z.Z.Z.Z.Z.Z.Z.Z.Z.Z.Z.Z.Z.Z.Z.Z.9.9.9.9.9.9.9.Z.Z.Z.Z.Z.Z.Z.Z.Z.c 9.9.9.9.9.9.9.Z.Z.Z.Z.Z.Z.Z.Z.Z.Z.Z.Z.Z.Z.Z.Z.Z.Z.Z.Z.",
"Z.Z.Z.Z.Z.Z.Z.Z.Z.Z.Z.Z.Z.Z.Z.Z.Z.Z.9.9.9.9.9.9.Z.Z.Z.Z.Z.Z.Z.Z.Z.Z.Z.Z.Z.Z.Z.Z.9.9.9.9.8.Z.Z.Z.Z.Z.Z.Z.Z.Z.Z.Z.Z.Z.Z.Z.Z.Z.Z.Z.",
"Z.Z.Z.Z.Z.Z.Z.Z.Z.Z.Z.Z.Z.Z.Z.Z.Z.9.9.9.9.9.Z.Z.Z.Z.Z.Z.Z.Z.Z.Z.Z.Z.Z.Z.Z.Z.Z.Z.Z.Z.9.9.9.8.#.Z.Z.Z.Z.Z.Z.Z.Z.Z.Z.Z.Z.Z.Z.Z.Z.Z.",
"Z.Z.Z.Z.Z.Z.Z.Z.Z.Z.Z.Z.Z.Z.Z.Z.9.9.9.9.Z.Z.Z.Z.Z.Z.Z.Z.Z.Z.Z.Z.Z.Z.Z.Z.Z.Z.Z.Z.Z.Z.Z.Z.9.9.9.9.Z.Z.Z.Z.Z.Z.Z.Z.Z.Z.Z.Z.Z.Z.Z.Z.",
"Z.Z.Z.Z.Z.Z.Z.Z.Z.Z.Z.Z.Z.Z.Z.9.9.9.9.Z.Z.Z.Z.Z.Z.Z.Z.Z.Z.9.9.9.9.9.#.Z.Z.Z.Z.Z.Z.Z.Z.Z.Z.9.9.9.9.Z.Z.Z.Z.Z.Z.Z.Z.Z.Z.Z.Z.Z.Z.Z.",
"Z.Z.Z.Z.Z.Z.Z.Z.Z.Z.Z.Z.Z.Z.9.9.9.#.Z.Z.Z.Z.Z.Z.Z.Z.P 9.9.9.9.9.9.9.9.9.9.Z.Z.Z.Z.Z.Z.Z.Z.Z.9.9.9.9.Z.Z.Z.Z.Z.Z.Z.Z.Z.Z.Z.Z.Z.Z.",
"Z.Z.Z.Z.Z.Z.Z.Z.Z.Z.Z.Z.Z.9.9.9.9.Z.Z.Z.Z.Z.Z.Z.Z.9.9.9.9.9.9.6.6.9.9.9.9.9.6.Z.Z.Z.Z.Z.Z.Z.Z.9.9.9.Z Z.Z.Z.Z.Z.Z.Z.Z.Z.Z.Z.Z.Z.",
"Z.Z.Z.Z.Z.Z.Z.Z.Z.Z.Z.Z.&.9.9.9.Z.Z.Z.Z.Z.Z.Z.Z.9.9.6.9.Z.Z.Z.Z.Z.Z.Z.N 9.9.9.>.Z.Z.Z.Z.Z.Z.Z.Z.9.9.9.Z.Z.Z.Z.Z.Z.Z.Z.Z.Z.Z.Z.Z.",
"Z.Z.Z.Z.Z.Z.Z.Z.Z.Z.Z.Z.9.9.9.Z.Z.Z.Z.Z.Z.Z.Z.9.9.9.9.Z.Z.Z.Z.Z.Z.Z.Z.Z.Z.9.9.9.n Z.Z.Z.Z.Z.Z.Z.Z 9.9.9.Z.Z.Z.Z.Z.Z.Z.Z.Z.Z.Z.Z.",
"Z.Z.Z.Z.Z.Z.Z.Z.Z.Z.Z.9.9.9.( Z.Z.Z.Z.Z.Z.Z.Z.9.9.9.Z.Z.Z.Z.Z.Z.Z.Z.Z.Z.Z.Z.9.9.9.Z.Z.Z.Z.Z.Z.Z.Z.9.9.9.Z.Z.Z.Z.Z.Z.Z.Z.Z.Z.Z.Z.",
"Z.Z.Z.Z.Z.Z.Z.Z.Z.Z.Z.9.9.9.Z.Z.Z.Z.Z.Z.Z.Z.9.9.9.Z.Z.Z.Z.Z.Z.Z.Z.Z.Z.Z.Z.Z.[ 9.9.Z.Z.Z.Z.Z.Z.Z.Z.Z.9.9.9.Z.Z.Z.Z.Z.Z.Z.Z.Z.Z.Z.",
"Z.Z.Z.Z.Z.Z.Z.Z.Z.Z.b 9.9.{ Z.Z.Z.Z.Z.Z.Z.Z.9.9.9.Z.Z.Z.Z.Z.Z.Z.Z.Z.Z.Z.Z.Z.Z.9.9.9.Z.Z.Z.Z.Z.Z.Z.Z.9.9.9.Z.Z.Z.Z.Z.Z.Z.Z.Z.Z.Z.",
"Z.Z.Z.Z.Z.Z.Z.Z.Z.Z.9.9.9.Z.Z.Z.Z.Z.Z.Z.Z.Z.9.9.9.Z.Z.Z.Z.Z.Z.Z.Z.Z.Z.Z.Z.Z.Z.9.9.9.Z.Z.Z.Z.Z.Z.Z.Z.X.9.9.Z.Z.Z.Z.Z.Z.Z.Z.Z.Z.Z.",
"Z.Z.Z.Z.Z.Z.Z.Z.Z.Z.9.9.9.Z.Z.Z.Z.Z.Z.Z.Z.Z.9.9.9.Z.Z.Z.Z.9.9.9.9.9.+.Z.Z.Z.Z.9.9.9.Z.Z.Z.Z.Z.Z.Z.Z.Z.9.9.>.Z.Z.Z.Z.Z.Z.Z.Z.Z.Z.",
"Z.Z.Z.Z.Z.Z.Z.Z.Z.Z.9.9.9.Z.Z.Z.Z.Z.Z.Z.Z.Z.9.9.9.Z.Z.Z.Z.9.9.9.9.9.9.Z.Z.Z.Z.9.9.@.Z.Z.Z.Z.Z.Z.Z.Z.Z.9.9.9.Z.Z.Z.Z.Z.Z.Z.Z.Z.Z.",
"Z.Z.Z.Z.Z.Z.Z.Z.Z.Z.9.9.9.Z.Z.Z.Z.Z.Z.Z.Z.Z.9.9.9.Z.Z.Z.Z.Z.9.9.9.S Z.Z.Z.Z.9.9.9.Z.Z.Z.Z.Z.Z.Z.Z.Z.Z.9.9.9.Z.Z.Z.Z.Z.Z.Z.Z.Z.Z.",
"Z.Z.Z.Z.Z.Z.Z.Z.Z.Z.9.9.[ Z.Z.Z.Z.Z.Z.Z.Z.Z.Z.9.9.9.Z.Z.Z.Z.>.9.6.Z.Z.Z.Z.Z.9.9.9.Z.Z.Z.Z.Z.Z.Z.Z.Z.Z.9.9.9.Z.Z.Z.Z.Z.Z.Z.Z.Z.Z.",
"Z.Z.Z.Z.Z.Z.Z.Z.Z.Z.9.9.[ Z.Z.Z.Z.Z.Z.Z.Z.Z.Z.#.9.9.9.Z.Z.Z.>.9.9.Z.Z.Z.Z.9.9.9.Z.Z.Z.Z.Z.Z.Z.Z.Z.Z.Z.9.9.9.Z.Z.Z.Z.Z.Z.Z.Z.Z.Z.",
"Z.Z.Z.Z.Z.Z.Z.Z.Z.Z.9.9.9.Z.Z.Z.Z.Z.Z.Z.Z.Z.Z.Z.9.9.9.Z.Z.Z.>.9.9.Z.Z.Z.Z.9.9.Y Z.Z.Z.Z.Z.Z.Z.Z.Z.Z.Z.9.9.9.Z.Z.Z.Z.Z.Z.Z.Z.Z.Z.",
"Z.Z.Z.Z.Z.Z.Z.Z.Z.Z.9.9.9.Z.Z.Z.Z.Z.Z.Z.Z.Z.Z.Z.Z.Z.Z.Z.Z.Z.>.9.9.Z.Z.Z.Z.Z.Z.Z.Z.Z.Z.Z.Z.Z.Z.Z.Z.Z.Z.9.9.9.Z.Z.Z.Z.Z.Z.Z.Z.Z.Z.",
"Z.Z.Z.Z.Z.Z.Z.Z.Z.Z.9.9.9.Z.Z.Z.Z.Z.Z.Z.Z.Z.Z.Z.Z.Z.Z.Z.Z.Z.9.9.9.Z.Z.Z.Z.Z.Z.Z.Z.Z.Z.Z.Z.Z.Z.Z.Z.Z.Z.9.9.L Z.Z.Z.Z.Z.Z.Z.Z.Z.Z.",
"Z.Z.Z.Z.Z.Z.Z.Z.Z.Z.9.9.9.Z.Z.Z.Z.Z.Z.Z.Z.Z.Z.Z.Z.Z.Z.9.9.9.9.9.9.9.9.9.9.Z.Z.Z.Z.Z.Z.Z.Z.Z.Z.Z.Z.Z.8.9.9.Z.Z.Z.Z.Z.Z.Z.Z.Z.Z.Z.",
"Z.Z.Z.Z.Z.Z.Z.Z.Z.Z.N 9.9.&.Z.Z.Z.Z.Z.Z.Z.Z.Z.Z.Z.Z.Z.9.9.9.9.9.9.9.9.9.V Z.Z.Z.Z.Z.Z.Z.Z.Z.Z.Z.Z.Z.8.9.9.Z.Z.Z.Z.Z.Z.Z.Z.Z.Z.Z.",
"Z.Z.Z.Z.Z.Z.Z.Z.Z.Z.Z.9.9.9.Z.Z.Z.Z.Z.Z.Z.Z.Z.Z.Z.Z.Z.Z.Z.Z.Z.Z.Z.Z.Z.Z.Z.Z.Z.Z.Z.Z.Z.Z.Z.Z.Z.Z.Z.Z.9.9.=.Z.Z.Z.Z.Z.Z.Z.Z.Z.Z.Z.",
"Z.Z.Z.Z.Z.Z.Z.Z.Z.Z.Z.&.9.9.P Z.Z.Z.Z.Z.Z.Z.Z.Z.Z.Z.Z.Z 9.9.9.9.9.9.9.9.Z.Z.Z.Z.Z.Z.Z.Z.Z.Z.Z.Z.Z.9.9.9.Z.Z.Z.Z.Z.Z.Z.Z.Z.Z.Z.Z.",
"Z.Z.Z.Z.Z.Z.Z.Z.Z.Z.Z.Z.9.9.9.Z.Z.Z.Z.Z.Z.Z.Z.Z.Z.Z.Z.9.9.9.9.9.9.9.9.9.9.Z.Z.Z.Z.Z.Z.Z.Z.Z.Z.Z.+.9.9.9.Z.Z.Z.Z.Z.Z.Z.Z.Z.Z.Z.Z.",
"Z.Z.Z.Z.Z.Z.Z.Z.Z.Z.Z.Z.( 9.9.9.Z.Z.Z.Z.Z.Z.Z.Z.Z.Z.Z.P 9.9.9.9.9.9.9.9.Z.Z.Z.Z.Z.Z.Z.Z.Z.Z.Z.Z.8.9.9.Z.Z.Z.Z.Z.Z.Z.Z.Z.Z.Z.Z.Z.",
"Z.Z.Z.Z.Z.Z.Z.Z.Z.Z.Z.Z.Z.9.9.9.9.Z.Z.Z.Z.Z.Z.Z.Z.Z.Z.Z.Z.Z.Z.Z.Z.Z.Z.Z.Z.Z.Z.Z.Z.Z.Z.Z.Z.Z.Z.9.9.9.Z.Z.Z.Z.Z.Z.Z.Z.Z.Z.Z.Z.Z.Z.",
"Z.Z.Z.Z.Z.Z.Z.Z.Z.Z.Z.Z.Z.Z.9.9.9.&.Z.Z.Z.Z.Z.Z.Z.Z.Z.Z.X.9.9.9.9.9.9.Z.Z.Z.Z.Z.Z.Z.Z.Z.Z.Z.9.9.9.+.Z.Z.Z.Z.Z.Z.Z.Z.Z.Z.Z.Z.Z.Z.",
"Z.Z.Z.Z.Z.Z.Z.Z.Z.Z.Z.Z.Z.Z.Z.6.9.9.9.Z.Z.Z.Z.Z.Z.Z.Z.Z.=.9.9.9.9.9.9.Z.Z.Z.Z.Z.Z.Z.Z.Z.Z.9.9.9.9.Z.Z.Z.Z.Z.Z.Z.Z.Z.Z.Z.Z.Z.Z.Z.",
"Z.Z.Z.Z.Z.Z.Z.Z.Z.Z.Z.Z.Z.Z.Z.Z.9.9.9.9.Z.Z.Z.Z.Z.Z.Z.Z.Z.Z.Z.Z.Z.Z.Z.Z.Z.Z.Z.Z.Z.Z.Z.+.9.9.9.&.Z.Z.Z.Z.Z.Z.Z.Z.Z.Z.Z.Z.Z.Z.Z.Z.",
"Z.Z.Z.Z.Z.Z.Z.Z.Z.Z.Z.Z.Z.Z.Z.Z.Z.9.9.9.9.9.Z.Z.Z.Z.Z.Z.Z.Z.Z.Z.Z.Z.Z.Z.Z.Z.Z.Z.Z.Z.9.9.9.9.( Z.Z.Z.Z.Z.Z.Z.Z.Z.Z.Z.Z.Z.Z.Z.Z.Z.",
"Z.Z.Z.Z.Z.Z.Z.Z.Z.Z.Z.Z.Z.Z.Z.Z.Z.Z.X.9.9.9.9.9.Z.Z.Z.Z.Z.Z.Z.Z.Z.Z.Z.Z.Z.Z.Z.C 9.9.9.9.9.Z.Z.Z.Z.Z.Z.Z.Z.Z.Z.Z.Z.Z.Z.Z.Z.Z.Z.Z.",
"Z.Z.Z.Z.Z.Z.Z.Z.Z.Z.Z.Z.Z.Z.Z.Z.Z.Z.Z.Z.9.9.9.9.9.9.9.H Z.Z.Z.Z.Z.Z.Z.Z.[ 9.9.9.9.9.9.X.Z.Z.Z.Z.Z.Z.Z.Z.Z.Z.Z.Z.Z.Z.Z.Z.Z.Z.Z.Z.",
"Z.Z.Z.Z.Z.Z.Z.Z.Z.Z.Z.Z.Z.Z.Z.Z.Z.Z.Z.Z.Z.Z.>.9.9.9.9.9.9.9.9.9.9.9.9.9.9.9.9.9.9.H Z.Z.Z.Z.Z.Z.Z.Z.Z.Z.Z.Z.Z.Z.Z.Z.Z.Z.Z.Z.Z.Z.",
"Z.Z.Z.Z.Z.Z.Z.Z.Z.Z.Z.Z.Z.Z.Z.Z.Z.Z.Z.Z.Z.Z.Z.Z.Z.9.9.9.9.9.9.9.9.9.9.9.9.9.+.Z.Z.Z.Z.Z.Z.Z.Z.Z.Z.Z.Z.Z.Z.Z.Z.Z.Z.Z.Z.Z.Z.Z.Z.Z.",
"Z.Z.Z.Z.Z.Z.Z.Z.Z.Z.Z.Z.Z.Z.Z.Z.Z.Z.Z.Z.Z.Z.Z.Z.Z.Z.Z.Z.Z.Z.Z._ V Z.Z.Z.Z.Z.Z.Z.Z.Z.Z.Z.Z.Z.Z.Z.Z.Z.Z.Z.Z.Z.Z.Z.Z.Z.Z.Z.Z.Z.Z.Z.",
"Z.Z.Z.Z.Z.Z.Z.Z.Z.Z.Z.Z.Z.Z.Z.Z.Z.Z.Z.Z.Z.Z.Z.Z.Z.Z.Z.Z.Z.Z.Z.Z.Z.Z.Z.Z.Z.Z.Z.Z.Z.Z.Z.Z.Z.Z.Z.Z.Z.Z.Z.Z.Z.Z.Z.Z.Z.Z.Z.Z.Z.Z.Z.Z.",
"Z.Z.Z.Z.Z.Z.Z.Z.Z.Z.Z.Z.Z.Z.Z.Z.Z.Z.Z.Z.Z.Z.Z.Z.Z.Z.Z.Z.Z.Z.Z.Z.Z.Z.Z.Z.Z.Z.Z.Z.Z.Z.Z.Z.Z.Z.Z.Z.Z.Z.Z.Z.Z.Z.Z.Z.Z.Z.Z.Z.Z.Z.Z.Z.",
"Z.Z.Z.Z.Z.Z.Z.Z.Z.Z.Z.Z.Z.Z.Z.Z.Z.Z.Z.Z.Z.Z.Z.Z.Z.Z.Z.Z.Z.Z.Z.Z.Z.Z.Z.Z.Z.Z.Z.Z.Z.Z.Z.Z.Z.Z.Z.Z.Z.Z.Z.Z.Z.Z.Z.Z.Z.Z.Z.Z.Z.Z.Z.Z.",
"Z.Z.Z.Z.Z.Z.Z.Z.Z.Z.Z.Z.Z.Z.Z.Z.C.C.C.Z.Z.Z.Z.Z.Z.Z.Z.Z.Z.Z.Z.Z.Z.Z.Z.Z.Z.Z.Z.Z.Z.Z.Z.Z.Z.Z.Z.Z.Z.Z.D C.C.Z.Z.Z.Z.Z.Z.Z.Z.Z.Z.Z.",
"Z.Z.Z.Z.Z.Z.Z.Z.Z.Z.Z.Z.Z.Z.Z.Z.C.C.C.Z.Z.Z.Z.Z.Z.Z.Z.Z.Z.Z.Z.Z.Z.Z.Z.Z.Z.Z.Z.Z.Z.Z.Z.Z.Z.Z.Z.Z.Z.Z.D C.C.Z.Z.Z.Z.Z.Z.Z.Z.Z.Z.Z.",
"Z.Z.Z.Z.Z.Z.Z.Z.Z.Z.Z.Z.Z.Z.Z.Z.Z.Z.Z.Z.Z.Z.Z.Z.Z.Z.Z.Z.Z.Z.Z.Z.Z.Z.Z.Z.Z.Z.Z.Z.Z.Z.Z.Z.Z.Z.Z.Z.Z.Z.Z.Z.Z.Z.Z.Z.Z.Z.Z.Z.Z.Z.Z.Z.",
"y.C.p.Z.Z.C.C.Z.Z.C.G Z.Z.C.C.Z.C.n.n.Z.C.C.Z.Z.Z.Z.` C.C.Z.Z.Z. .C.C.C.Z.Z.Z.Z.Z.Z.e.C.C.z.Z.Z.Z.Z.Z.C.C.Z.Z.C.C.Z.Z.b.C.C.Z.Z.",
"Z.C.C.Z.Z.h.C.Z.C.C.Z.Z.j.C.^ Z.C.C.C.Z.Z.C.C.Z.Z.Z.C.C.Z.Z.Z.C.C.C.C.C.C.C.Z.Z.^ C.C.C.C.C.C.h.Z.Z.D C.C.Z.Z.C.C.f.C.C.C.C.C.Z.",
"Z.b.C.Q Z.Z.C. .C.z.Z.Z.C.C.Z.Z.C.C.B.Z.Z.Z.C.C.Z.C.C.Z.Z.Z.C.C.T Z.Z.Z.C.Z.Z.Z.C.C.U Z.Z.Z.C.C.Z.Z.D C.C.Z.Z.C.C.C.Z.Z.Z.C.C.f.",
"Z.Z.C.C.Z.Z.b.C.C.Z.Z.B C.e.Z.Z.C.C.V.Z.Z.Z.p.C.C.C.Z.Z.Z.p.C.C.Z.Z.Z.Z.Z.Z.Z.C.C.C.Z.Z.Z.Z.j.C.C.Z.D C.C.Z.Z.C.C.D Z.Z.Z.C.C.C.",
"Z.Z.C.C.Z.Z.C.C.C.Z.Z.C.C.Z.Z.Z.C.C.C.Z.Z.Z.Z.C.C.C.Z.Z.Z.C.C.C.Z.Z.Z.Z.Z.Z.Z.C.C.C.Z.Z.Z.Z. .C.C.Z.D C.C.Z.Z.C.C.Z.Z.Z.Z.n.C.C.",
"Z.Z.Z.C.C.Z.C.v C.C.Z.C.b.Z.Z.Z.C.C.n.Z.Z.Z.j.C.C.C.e.Z.Z.p.C.C.Z.Z.Z.Z.Z.Z.Z.y.C.C.Z.Z.Z.Z.l.C.C.Z.D C.C.Z.Z.C.C.Z.Z.Z.Z.C.C.C.",
"Z.Z.Z.C.C.C.C.Z.E C.C.C.Z.Z.Z.Z.C.C.C.Z.Z.R C.C.Z.C.C.Z.Z.Z.C.C.C.Z.Z.m C.C.Z.Z.C.C.f.Z.Z.E C.C.Z.Z.D C.C.Z.Z.C.C.Z.Z.Z.Z.C.C.C.",
"Z.Z.Z.Z.C.C.y.Z.Z.C.C.b.Z.Z.Z.Z.C.C.B.Z.Z.C.C.Z.Z.Z.C.C.Z.Z.Z.C.C.C.C.C.b.^ Z.Z.Z.C.C.C.C.C.C.D Z.Z.D C.C.Z.Z.C.C.Z.Z.Z.Z.C.C.C.",
"Z.Z.Z.Z.Z.Z.Z.Z.Z.Z.Z.Z.Z.Z.Z.Z.Z.Z.Z.Z.Z.Z.Z.Z.Z.Z.Z.Z.Z.Z.Z.Z.Z.b.z.1.Z.Z.Z.Z.Z.Z.Z.b.z.Z.Z.Z.Z.Z.Z.Z.Z.Z.Z.Z.Z.Z.Z.Z.Z.Z.Z.Z.",
"Z.Z.Z.Z.Z.Z.Z.Z.Z.Z.Z.Z.Z.Z.Z.Z.Z.Z.Z.Z.Z.Z.Z.Z.Z.Z.Z.Z.Z.Z.Z.Z.Z.Z.Z.Z.Z.Z.Z.Z.Z.Z.Z.Z.Z.Z.Z.Z.Z.Z.Z.Z.Z.Z.Z.Z.Z.Z.Z.Z.Z.Z.Z.Z.",
"Z.Z.Z.Z.Z.Z.Z.Z.Z.Z.Z.Z.Z.Z.Z.Z.Z.Z.Z.Z.Z.Z.Z.Z.Z.Z.Z.Z.Z.Z.Z.Z.Z.Z.Z.Z.Z.Z.Z.Z.Z.Z.Z.Z.Z.Z.Z.Z.Z.Z.Z.Z.Z.Z.Z.Z.Z.Z.Z.Z.Z.Z.Z.Z.",
"Z.Z.Z.Z.Z.Z.Z.Z.Z.Z.Z.Z.Z.Z.Z.Z.Z.Z.Z.Z.Z.Z.Z.Z.@ Z.Z.Z.Z.Z.Z.Z.Z.Z.Z.Z.Z.Z.Z.Z.Z.Z.Z.Z.Z.Z.Z.Z.Z.Z.Z.Z.Z.Z.Z.Z.Z.Z.Z.Z.Z.Z.Z.Z.",
"Z.Z.Z.Z.Z.Z.Z.Z.Z.Z.Z.Z.Z.Z.Z.Z.Z.i Z.* Z.Z.Z.Z.e Z.Z.Z.Z.Z.Z.Z.Z.Z.Z.Z.Z.Z.Z.Z.- Z.Z.Z.Z.Z.Z.Z.Z.Z.k Z.Z.Z.Z.Z.Z.Z.Z.Z.Z.Z.Z.Z.",
"Z.Z.Z.Z.r O 9 Z.Z.* h Z.Z.4 6 Z.Z.i Z.Z.Z.Z.d x , Z.Z.x i x Z.k k Z.i @ e Z.9 X x Z.x Z.Z.Z.Z.k x Z.x   Z.Z.Z.x x Z.Z.Z.* Z.Z.Z.",
"Z.Z.Z.7 Z.Z.% Z.Z.Z.x Z.Z.x Z.Z.x Z.Z., Z.x Z.Z.Z.Z.Z.x Z.Z.Z.x Z.Z.Z.Z.k Z.Z.Z.x Z.k Z.* Z.k Z.Z.Z.k Z.Z.Z.x Z.Z.i e Z.Z.: Z.Z.",
"Z.Z.Z.x Z.r Z.x Z.Z.d Z.Z.x Z.Z.Z.Z.Z.5 Z.x Z.d Z.Z.Z.2 Z.s Z.k Z.> Z.Z.l o Z.Z.x Z.; Z.x Z.i Z.Z.Z.Z.Z.9 Z.k Z.Z.Z.x Z.Z.Z.Z.Z.",
"Z.Z.Z.Z.k Z.Z.x Z.Z.Z.Z.Z.k Z.Z.Z.x Z.3 Z.2 # Z.Z.Z.Z.- x Z.Z.$ Z.Z.i 2 Z.Z.x Z.e Z.x Z.x Z.Z.x Z.Z.x Z.x Z.Z.x Z.Z.x Z.Z.Z.Z.Z.",
"Z.Z.Z.Z.Z.Z.Z.Z.Z.Z.Z.Z.Z.Z.Z.Z.Z.Z.Z.Z.Z.Z.Z.Z.Z.Z.Z.Z.Z.Z.Z.Z.Z.Z.Z.Z.Z.Z.Z.Z.Z.Z.Z.Z.Z.Z.Z.Z.Z.Z.Z.Z.Z.Z.Z.Z.Z.Z.Z.Z.Z.Z.Z.Z."
};
