/* XPM */
static char *_5b9450581ba4857e1ffdb7476a7cba6[] = {
/* columns rows colors chars-per-pixel */
"32 32 36 1 ",
"  c #9B0707",
". c #A00707",
"X c #A40707",
"o c #B60808",
"O c #C90909",
"+ c #D50909",
"@ c #EF0A0A",
"# c #F00B0B",
"$ c #8C4710",
"% c #994D12",
"& c #9B4E12",
"* c #935017",
"= c #A95614",
"- c #A3591A",
"; c #B05915",
": c #B25A15",
"> c #B35B15",
", c #B75C16",
"< c #BC5F16",
"1 c #BD6016",
"2 c #BF6116",
"3 c #C26A1E",
"4 c #D06918",
"5 c #D36B19",
"6 c #D46B19",
"7 c #D76D1A",
"8 c #D96E1A",
"9 c #E2721A",
"0 c #E2721B",
"q c #E2731B",
"w c #E3731B",
"e c #D37421",
"r c #E77E24",
"t c #E98024",
"y c #EA8025",
"u c None",
/* pixels */
"uuuuuuuuuuuuuwwwww,uuuuuuuuuuuuu",
"uuuuuuuuuu5wwww<2wwwwuuuuuuuuuuu",
"uuuuuuuuuwwuuuuuuuuu&wwuuuuuuuuu",
"uuuuuuuuwwuuuuuuuuuuuuwwuuuuuuuu",
"uuuuuuuw7uuuuwwwwwwuuuuwwuuuuuuu",
"uuuuuuwwuuuuwwuuuuwwuuuuwwuuuuuu",
"uuuuuuwuuuuwwuuuuuuwwuuuuwuuuuuu",
"uuuuuwwuuuuwuuuuuuuwwuuuuwwuuuuu",
"uuuuuwuuuuuwuuwwwuuwwuuuuwwuuuuu",
"uuuuuwuuuuuwwuuwwuuw5uuuu=wuuuuu",
"uuuuuwuuuuuuwwuwwuwwuuuuu=wuuuuu",
"uuuuuwuuuuuuuuuwwuuuuuuuuwwuuuuu",
"uuuuuwwuuuuuu2wwwwuuuuuuuwwuuuuu",
"uuuuuuwuuuuuuuuuuuuuuuuuuwuuuuuu",
"uuuuuuwwuuuuu&wwwwuuuuuuwwuuuuuu",
"uuuuuuuw8uuuuu:wwuuuuuuwwuuuuuuu",
"uuuuuuuuwwuuuu6wwuuuuuwwuuuuuuuu",
"uuuuuuuuuwwuuuuuuuuuwwwuuuuuuuuu",
"uuuuuuuuuu:wwwwwwwwwwuuuuuuuuuuu",
"uuuuuuuuuuuuu:wwww$uuuuuuuuuuuuu",
"uuuuuuuuuuuuuuuuuuuuuuuuuuuuuuuu",
"uuuuuuuuuuuuuuuuuuuuuuuuuuuuuuuu",
"uuuuuuuuyuuuuuuuuuuuuuuuuyuuuuuu",
"yuu*yuyuyuyuuyuuyy3uuyy-uyuuyyyu",
"uyuyyuyuyuuyyuuyuuuuyuuyuyuuyuuy",
"uyuyyeuuyuuryuuyuuuuyuuyuyuuyuuy",
"uuyuyyuuyuuyuyuyyyyuyyyyuyuuyuuy",
"uuuuuuuuuuuuuuuuuuuuuuuuuuuuuuuu",
"uuuuuuuuuuuuuuuuuuuuuuuuuuuuuuuu",
"uuuuuuuu#uuuuuuuuuuuOuuuuuuuuuuu",
"uuuuuuuuuo.uuXuuuuuuuu+uuuOu# @u",
"uuuuuuuuuuuuu#uuuuuuuuuuuuuuuuuu"
};
