/* XPM */
static char *_b58ec808cf7463ce06f1069e115958c[] = {
/* columns rows colors chars-per-pixel */
"16 16 9 1 ",
"  c #E50A0A",
". c #E90A0A",
"X c #F00B0B",
"o c #BE681E",
"O c #E2721A",
"+ c #E2721B",
"@ c #E3731B",
"# c #EA8025",
"$ c None",
/* pixels */
"$$$$$$@@@@$$$$$$",
"$$$$@$$$$$$@$$$$",
"$$$@$$@$$@$$@$$$",
"$$$$$$$$$$$$@$$$",
"$$@$$$$@@$$$$$$$",
"$$@$$$@$$@$$$$$$",
"$$$$$$$$$$$$@$$$",
"$$$@$$$$$$$$@$$$",
"$$$$@$$$$$$@$$$$",
"$$$$$$@@@@$$$$$$",
"$$$$$$$$$$$$$$$$",
"$$$$$$$$$$$$$$$$",
"$$$$#$o#$$$$$$$#",
"$##$##$$#$##$$$#",
"$$$$ $$$$$$$$$$$",
"$XX$$$$$XX.$X$$$"
};
