/* XPM */
static char *_2987ad2ecf1496ee5b800551bdc53bf[] = {
/* columns rows colors chars-per-pixel */
"128 128 59 1 ",
"  c #773C0E",
". c #890606",
"X c #940606",
"o c #9C0707",
"O c #A50707",
"+ c #AC0707",
"@ c #AD0808",
"# c #B40808",
"$ c #BB0808",
"% c #C40909",
"& c #CC0909",
"* c #D40909",
"= c #DC0A0A",
"- c #E40A0A",
"; c #ED0A0A",
": c #F00B0B",
"> c #874410",
", c #8C4710",
"< c #854815",
"1 c #8F4911",
"2 c #934B11",
"3 c #9B4E12",
"4 c #965217",
"5 c #9E5013",
"6 c #9C5519",
"7 c #A45313",
"8 c #AA5613",
"9 c #AE5814",
"0 c #A55A1A",
"q c #AC5D1B",
"w c #B45B15",
"e c #BA5E16",
"r c #AE611A",
"t c #BD6016",
"y c #B3621C",
"u c #BA651D",
"i c #BE691C",
"p c #B06320",
"a c #C36317",
"s c #C96517",
"d c #CB6618",
"f c #C26A1E",
"g c #CE681A",
"h c #D46B19",
"j c #D96E19",
"k c #DE701A",
"l c #E3731B",
"z c #C66C20",
"x c #C96D20",
"c c #CE7020",
"v c #D47321",
"b c #D97722",
"n c #DD7923",
"m c #E37C24",
"M c #E97F24",
"N c #E78026",
"B c #EA8025",
"V c #E48028",
"C c None",
/* pixels */
"CCCCCCCCCCCCCCCCCCCCCCCCCCCCCCCCCCCCCCCCCCCCCCCCCCCCCCCCCCCCCCCCCCCCCCCCCCCCCCCCCCCCCCCCCCCCCCCCCCCCCCCCCCCCCCCCCCCCCCCCCCCCCCCC",
"CCCCCCCCCCCCCCCCCCCCCCCCCCCCCCCCCCCCCCCCCCCCCCCCCCCCCCChjlllllllllllllhhCCCCCCCCCCCCCCCCCCCCCCCCCCCCCCCCCCCCCCCCCCCCCCCCCCCCCCCC",
"CCCCCCCCCCCCCCCCCCCCCCCCCCCCCCCCCCCCCCCCCCCCCCCCCC5llllllllllllllllllllllllj3CCCCCCCCCCCCCCCCCCCCCCCCCCCCCCCCCCCCCCCCCCCCCCCCCCC",
"CCCCCCCCCCCCCCCCCCCCCCCCCCCCCCCCCCCCCCCCCCCCCCCwllllllllllllllllllllllllllllllkwCCCCCCCCCCCCCCCCCCCCCCCCCCCCCCCCCCCCCCCCCCCCCCCC",
"CCCCCCCCCCCCCCCCCCCCCCCCCCCCCCCCCCCCCCCCCCCC>lllllllllllllllllllllllllllllllllllll>CCCCCCCCCCCCCCCCCCCCCCCCCCCCCCCCCCCCCCCCCCCCC",
"CCCCCCCCCCCCCCCCCCCCCCCCCCCCCCCCCCCCCCCCCCdlllllllllllllllllllllllllllllllllllllllll7CCCCCCCCCCCCCCCCCCCCCCCCCCCCCCCCCCCCCCCCCCC",
"CCCCCCCCCCCCCCCCCCCCCCCCCCCCCCCCCCCCCCCC3lllllllllllllljtCCCCCCCCCCCCCCtkllllllllllllleCCCCCCCCCCCCCCCCCCCCCCCCCCCCCCCCCCCCCCCCC",
"CCCCCCCCCCCCCCCCCCCCCCCCCCCCCCCCCCCCCCCllllllllllllk>CCCCCCCCCCCCCCCCCCCCCC3klllllllllll5CCCCCCCCCCCCCCCCCCCCCCCCCCCCCCCCCCCCCCC",
"CCCCCCCCCCCCCCCCCCCCCCCCCCCCCCCCCCCCCdlllllllllllCCCCCCCCCCCCCCCCCCCCCCCCCCCCC1klllllllllgCCCCCCCCCCCCCCCCCCCCCCCCCCCCCCCCCCCCCC",
"CCCCCCCCCCCCCCCCCCCCCCCCCCCCCCCCCCCClllllllllltCCCCCCCCCCCCCCCCCCCCCCCCCCCCCCCCCCdlllllllll3CCCCCCCCCCCCCCCCCCCCCCCCCCCCCCCCCCCC",
"CCCCCCCCCCCCCCCCCCCCCCCCCCCCCCCCCCallllllllltCCCCCCCCCCCCCCCCCCCCCCCCCCCCCCCCCCCCCCllllllllldCCCCCCCCCCCCCCCCCCCCCCCCCCCCCCCCCCC",
"CCCCCCCCCCCCCCCCCCCCCCCCCCCCCCCCChllllllllaCCCCCCCCCCCCCCCCCCCCCCCCCCCCCCCCCCCCCCCCCChllllllljCCCCCCCCCCCCCCCCCCCCCCCCCCCCCCCCCC",
"CCCCCCCCCCCCCCCCCCCCCCCCCCCCCCCClllllllllCCCCCCCCCCCCCCCCCCCCCCCCCCCCCCCCCCCCCCCCCCCCC8llllllllCCCCCCCCCCCCCCCCCCCCCCCCCCCCCCCCC",
"CCCCCCCCCCCCCCCCCCCCCCCCCCCCCCCllllllllaCCCCCCCCCCCCCCCCCCCCCCCCCCCCCCCCCCCCCCCCCCCCCCCCklllllllCCCCCCCCCCCCCCCCCCCCCCCCCCCCCCCC",
"CCCCCCCCCCCCCCCCCCCCCCCCCCCCCCllllllllCCCCCCCCCCCCCCCCCCCCC11lllll21CCCCCCCCCCCCCCCCCCCCCklllllllCCCCCCCCCCCCCCCCCCCCCCCCCCCCCCC",
"CCCCCCCCCCCCCCCCCCCCCCCCCCCCCklllllllCCCCCCCCCCCCCCCCCCCglllllllllllllgCCCCCCCCCCCCCCCCCCCelllllllCCCCCCCCCCCCCCCCCCCCCCCCCCCCCC",
"CCCCCCCCCCCCCCCCCCCCCCCCCCCChlllllllCCCCCCCCCCCCCCCCCClllllllllllllllllll7CCCCCCCCCCCCCCCCC9lllllllCCCCCCCCCCCCCCCCCCCCCCCCCCCCC",
"CCCCCCCCCCCCCCCCCCCCCCCCCCCdlllllldCCCCCCCCCCCCCCCCCkllllllllllllllllllllllCCCCCCCCCCCCCCCCC8lllllllCCCCCCCCCCCCCCCCCCCCCCCCCCCC",
"CCCCCCCCCCCCCCCCCCCCCCCCCC9lllllllCCCCCCCCCCCCCCCC9lllllllllllllllllllllllllwCCCCCCCCCCCCCCCC2llllllgCCCCCCCCCCCCCCCCCCCCCCCCCCC",
"CCCCCCCCCCCCCCCCCCCCCCCCCClllllllCCCCCCCCCCCCCCCCtllllllllld9CCCCCCtlllllllllkCCCCCCCCCCCCCCCCtllllll5CCCCCCCCCCCCCCCCCCCCCCCCCC",
"CCCCCCCCCCCCCCCCCCCCCCCCClllllllCCCCCCCCCCCCCCCCdllllllllCCCCCCCCCCCCCtllllllllCCCCCCCCCCCCCCCCsllllllCCCCCCCCCCCCCCCCCCCCCCCCCC",
"CCCCCCCCCCCCCCCCCCCCCCCC7llllllCCCCCCCCCCCCCCCCwlllllllCCCCCCCCCCCCCCCCChlllllljCCCCCCCCCCCCCCCClllllljCCCCCCCCCCCCCCCCCCCCCCCCC",
"CCCCCCCCCCCCCCCCCCCCCCCClllllldCCCCCCCCCCCCCCCClllllllCCCCCCCCCCCCCCCCCCCdlllllleCCCCCCCCCCCCCCCCllllllCCCCCCCCCCCCCCCCCCCCCCCCC",
"CCCCCCCCCCCCCCCCCCCCCCCellllllCCCCCCCCCCCCCCCCllllllkCCCCCCCCCCCCCCCCCCCCCtllllllCCCCCCCCCCCCCCCCdllllljCCCCCCCCCCCCCCCCCCCCCCCC",
"CCCCCCCCCCCCCCCCCCCCCCCllllllCCCCCCCCCCCCCCCC9llllllCCCCCCCCCCCCCCCCCCCCCCChllllllCCCCCCCCCCCCCCCCllllllCCCCCCCCCCCCCCCCCCCCCCCC",
"CCCCCCCCCCCCCCCCCCCCCC9lllllkCCCCCCCCCCCCCCCCllllllCCCCCCCCCCCCCCCCCCCCCCCCCklllllCCCCCCCCCCCCCCCC9llllllCCCCCCCCCCCCCCCCCCCCCCC",
"CCCCCCCCCCCCCCCCCCCCCCllllllCCCCCCCCCCCCCCCCCllllljCCCCCCCCCCCCCCCCCCCCCCCCCCllllleCCCCCCCCCCCCCCCCllllllCCCCCCCCCCCCCCCCCCCCCCC",
"CCCCCCCCCCCCCCCCCCCCCCllllllCCCCCCCCCCCCCCCCllllllCCCCCCCCCCCCCCCCCCCCCCCCCCCllllllCCCCCCCCCCCCCCCCelllllgCCCCCCCCCCCCCCCCCCCCCC",
"CCCCCCCCCCCCCCCCCCCCCllllllCCCCCCCCCCCCCCCCCllllllCCCCCCCCCCCCCCCCCCCCCCCCCCChlllllCCCCCCCCCCCCCCCCCllllllCCCCCCCCCCCCCCCCCCCCCC",
"CCCCCCCCCCCCCCCCCCCCCllllllCCCCCCCCCCCCCCCCCllllldCCCCCCCCCCCCCCCCCCCCCCCCCCCClllllCCCCCCCCCCCCCCCCCjlllllCCCCCCCCCCCCCCCCCCCCCC",
"CCCCCCCCCCCCCCCCCCCCClllllkCCCCCCCCCCCCCCCCClllllCCCCCCCCCCCCCCCCCCCCCCCCCCCCClllll CCCCCCCCCCCCCCCCClllllwCCCCCCCCCCCCCCCCCCCCC",
"CCCCCCCCCCCCCCCCCCCCllllllCCCCCCCCCCCCCCCCCClllllCCCCCCCCCCCCCCCCCCCCCCCCCCCCCllllldCCCCCCCCCCCCCCCCCllllllCCCCCCCCCCCCCCCCCCCCC",
"CCCCCCCCCCCCCCCCCCCCllllllCCCCCCCCCCCCCCCCCClllllCCCCCCCCC8lllllllllaCCCCCCCCClllll7CCCCCCCCCCCCCCCCCllllllCCCCCCCCCCCCCCCCCCCCC",
"CCCCCCCCCCCCCCCCCCCCllllllCCCCCCCCCCCCCCCCCClllllCCCCCCCCCllllllllllleCCCCCCCClllllCCCCCCCCCCCCCCCCCCdlllllCCCCCCCCCCCCCCCCCCCCC",
"CCCCCCCCCCCCCCCCCCCCllllllCCCCCCCCCCCCCCCCCClllllkCCCCCCC1llllllllllllCCCCCCCClllllCCCCCCCCCCCCCCCCCCClllllCCCCCCCCCCCCCCCCCCCCC",
"CCCCCCCCCCCCCCCCCCCClllll8CCCCCCCCCCCCCCCCCCllllllCCCCCCCClllllllllllwCCCCCCCklllllCCCCCCCCCCCCCCCCCCClllllkCCCCCCCCCCCCCCCCCCCC",
"CCCCCCCCCCCCCCCCCCC8lllllCCCCCCCCCCCCCCCCCCC8lllllCCCCCCCCClllllllllaCCCCCCCCllllllCCCCCCCCCCCCCCCCCCCllllllCCCCCCCCCCCCCCCCCCCC",
"CCCCCCCCCCCCCCCCCCCjlllllCCCCCCCCCCCCCCCCCCCCllllllCCCCCCCCCCllllleCCCCCCCCCjlllll2CCCCCCCCCCCCCCCCCCCllllllCCCCCCCCCCCCCCCCCCCC",
"CCCCCCCCCCCCCCCCCCCjlllllCCCCCCCCCCCCCCCCCCCCllllll9CCCCCCCCClllll8CCCCCCCCCllllllCCCCCCCCCCCCCCCCCCCCllllllCCCCCCCCCCCCCCCCCCCC",
"CCCCCCCCCCCCCCCCCCCjlllllCCCCCCCCCCCCCCCCCCCCCllllllCCCCCCCCClllll8CCCCCCCClllllleCCCCCCCCCCCCCCCCCCCCllllllCCCCCCCCCCCCCCCCCCCC",
"CCCCCCCCCCCCCCCCCCCjlllllCCCCCCCCCCCCCCCCCCCCCtllllllCCCCCCCClllll8CCCCCCClllllllCCCCCCCCCCCCCCCCCCCCCllllllCCCCCCCCCCCCCCCCCCCC",
"CCCCCCCCCCCCCCCCCCChlllllCCCCCCCCCCCCCCCCCCCCCClllllllCCCCCCClllll8CCCCCChllllllCCCCCCCCCCCCCCCCCCCCCCllllllCCCCCCCCCCCCCCCCCCCC",
"CCCCCCCCCCCCCCCCCCCjlllllCCCCCCCCCCCCCCCCCCCCCCCllllllCCCCCCClllll8CCCCCCllllll8CCCCCCCCCCCCCCCCCCCCCCllllllCCCCCCCCCCCCCCCCCCCC",
"CCCCCCCCCCCCCCCCCCCdlllllCCCCCCCCCCCCCCCCCCCCCCCClllllCCCCCCClllll8CCCCCCklllltCCCCCCCCCCCCCCCCCCCCCCCllllllCCCCCCCCCCCCCCCCCCCC",
"CCCCCCCCCCCCCCCCCCCClllll9CCCCCCCCCCCCCCCCCCCCCCCCgljCCCCCCCClllll8CCCCCCCwllCCCCCCCCCCCCCCCCCCCCCCCCCllllllCCCCCCCCCCCCCCCCCCCC",
"CCCCCCCCCCCCCCCCCCCCllllllCCCCCCCCCCCCCCCCCCCCCCCCCCCCCCCCCCClllll8CCCCCCCCCCCCCCCCCCCCCCCCCCCCCCCCCCClllllCCCCCCCCCCCCCCCCCCCCC",
"CCCCCCCCCCCCCCCCCCCCllllllCCCCCCCCCCCCCCCCCCCCCCCCCCCCCCCCCCClllll8CCCCCCCCCCCCCCCCCCCCCCCCCCCCCCCCCCklllllCCCCCCCCCCCCCCCCCCCCC",
"CCCCCCCCCCCCCCCCCCCCllllllCCCCCCCCCCCCCCCCCCCCCCCCCCCCClllllllllllllllllCCCCCCCCCCCCCCCCCCCCCCCCCCCCCllllllCCCCCCCCCCCCCCCCCCCCC",
"CCCCCCCCCCCCCCCCCCCCllllllCCCCCCCCCCCCCCCCCCCCCCCCCCCClllllllllllllllllllCCCCCCCCCCCCCCCCCCCCCCCCCCCCllllllCCCCCCCCCCCCCCCCCCCCC",
"CCCCCCCCCCCCCCCCCCCCClllllkCCCCCCCCCCCCCCCCCCCCCCCCCCClllllllllllllllllllCCCCCCCCCCCCCCCCCCCCCCCCCCC7lllll9CCCCCCCCCCCCCCCCCCCCC",
"CCCCCCCCCCCCCCCCCCCCCllllllCCCCCCCCCCCCCCCCCCCCCCCCCCClllllllllllllllllllCCCCCCCCCCCCCCCCCCCCCCCCCCCjlllllCCCCCCCCCCCCCCCCCCCCCC",
"CCCCCCCCCCCCCCCCCCCCCllllllCCCCCCCCCCCCCCCCCCCCCCCCCCCChllllllllllllllllCCCCCCCCCCCCCCCCCCCCCCCCCCCCllllllCCCCCCCCCCCCCCCCCCCCCC",
"CCCCCCCCCCCCCCCCCCCCCClllllkCCCCCCCCCCCCCCCCCCCCCCCCCCCCCCCCCCCCCCCCCCCCCCCCCCCCCCCCCCCCCCCCCCCCCCCglllll9CCCCCCCCCCCCCCCCCCCCCC",
"CCCCCCCCCCCCCCCCCCCCCCllllllCCCCCCCCCCCCCCCCCCCCCCCCCCCCCCCCCCCCCCCCCCCCCCCCCCCCCCCCCCCCCCCCCCCCCCCllllllCCCCCCCCCCCCCCCCCCCCCCC",
"CCCCCCCCCCCCCCCCCCCCCCwlllllhCCCCCCCCCCCCCCCCCCCCCCCCCCCCCCCCCCCCCCCCCCCCCCCCCCCCCCCCCCCCCCCCCCCCChllllldCCCCCCCCCCCCCCCCCCCCCCC",
"CCCCCCCCCCCCCCCCCCCCCCCllllllCCCCCCCCCCCCCCCCCCCCCCCCCallllllllllllllllllCCCCCCCCCCCCCCCCCCCCCCCCCllllllCCCCCCCCCCCCCCCCCCCCCCCC",
"CCCCCCCCCCCCCCCCCCCCCCCellllllCCCCCCCCCCCCCCCCCCCCCCCClllllllllllllllllllCCCCCCCCCCCCCCCCCCCCCCCClllllldCCCCCCCCCCCCCCCCCCCCCCCC",
"CCCCCCCCCCCCCCCCCCCCCCCClllllldCCCCCCCCCCCCCCCCCCCCCCClllllllllllllllllllCCCCCCCCCCCCCCCCCCCCCCCwllllllCCCCCCCCCCCCCCCCCCCCCCCCC",
"CCCCCCCCCCCCCCCCCCCCCCCCCllllllCCCCCCCCCCCCCCCCCCCCCCCellllllllllllllllllCCCCCCCCCCCCCCCCCCCCCCCllllllaCCCCCCCCCCCCCCCCCCCCCCCCC",
"CCCCCCCCCCCCCCCCCCCCCCCCCallllllCCCCCCCCCCCCCCCCCCCCCCCCCggggggggggggggCCCCCCCCCCCCCCCCCCCCCCCCllllllkCCCCCCCCCCCCCCCCCCCCCCCCCC",
"CCCCCCCCCCCCCCCCCCCCCCCCCClllllllCCCCCCCCCCCCCCCCCCCCCCCCCCCCCCCCCCCCCCCCCCCCCCCCCCCCCCCCCCCCCkllllllCCCCCCCCCCCCCCCCCCCCCCCCCCC",
"CCCCCCCCCCCCCCCCCCCCCCCCCCClllllldCCCCCCCCCCCCCCCCCCCCCCCCCCCCCCCCCCCCCCCCCCCCCCCCCCCCCCCCCCCdlllllltCCCCCCCCCCCCCCCCCCCCCCCCCCC",
"CCCCCCCCCCCCCCCCCCCCCCCCCCCwllllllkCCCCCCCCCCCCCCCCCCCCCCllllllllllllkCCCCCCCCCCCCCCCCCCCCCCkllllllhCCCCCCCCCCCCCCCCCCCCCCCCCCCC",
"CCCCCCCCCCCCCCCCCCCCCCCCCCCCdlllllllCCCCCCCCCCCCCCCCCCCCClllllllllllllsCCCCCCCCCCCCCCCCCCCCllllllllCCCCCCCCCCCCCCCCCCCCCCCCCCCCC",
"CCCCCCCCCCCCCCCCCCCCCCCCCCCCCjlllllllCCCCCCCCCCCCCCCCCCCCllllllllllllllCCCCCCCCCCCCCCCCCCCklllllllCCCCCCCCCCCCCCCCCCCCCCCCCCCCCC",
"CCCCCCCCCCCCCCCCCCCCCCCCCCCCCChlllllllCCCCCCCCCCCCCCCCCCClllllllllllllCCCCCCCCCCCCCCCCCCCllllllllCCCCCCCCCCCCCCCCCCCCCCCCCCCCCCC",
"CCCCCCCCCCCCCCCCCCCCCCCCCCCCCCCllllllllgCCCCCCCCCCCCCCCCCC,5755555755CCCCCCCCCCCCCCCCCCdllllllllCCCCCCCCCCCCCCCCCCCCCCCCCCCCCCCC",
"CCCCCCCCCCCCCCCCCCCCCCCCCCCCCCCCkllllllllCCCCCCCCCCCCCCCCCCCCCCCCCCCCCCCCCCCCCCCCCCCCCllllllllkCCCCCCCCCCCCCCCCCCCCCCCCCCCCCCCCC",
"CCCCCCCCCCCCCCCCCCCCCCCCCCCCCCCCC7llllllllaCCCCCCCCCCCCCCCCCCCCCCCCCCCCCCCCCCCCCCCCCalllllllldCCCCCCCCCCCCCCCCCCCCCCCCCCCCCCCCCC",
"CCCCCCCCCCCCCCCCCCCCCCCCCCCCCCCCCCCllllllllltCCCCCCCCCCCCCCCCCCCCCCCCCCCCCCCCCCCCCelllllllllwCCCCCCCCCCCCCCCCCCCCCCCCCCCCCCCCCCC",
"CCCCCCCCCCCCCCCCCCCCCCCCCCCCCCCCCCCCdlllllllllhCCCCCCCCCCCCCCCCCCCCCCCCCCCCCCCCChllllllllllCCCCCCCCCCCCCCCCCCCCCCCCCCCCCCCCCCCCC",
"CCCCCCCCCCCCCCCCCCCCCCCCCCCCCCCCCCCCC8lllllllllll8CCCCCCCCCCCCCCCCCCCCCCCCCCC7lllllllllllaCCCCCCCCCCCCCCCCCCCCCCCCCCCCCCCCCCCCCC",
"CCCCCCCCCCCCCCCCCCCCCCCCCCCCCCCCCCCCCCCalllllllllllltCCCCCCCCCCCCCCCCCCCCCtlllllllllllljCCCCCCCCCCCCCCCCCCCCCCCCCCCCCCCCCCCCCCCC",
"CCCCCCCCCCCCCCCCCCCCCCCCCCCCCCCCCCCCCCCCCllllllllllllllllw2CCCCCCCCC29llllllllllllllllCCCCCCCCCCCCCCCCCCCCCCCCCCCCCCCCCCCCCCCCCC",
"CCCCCCCCCCCCCCCCCCCCCCCCCCCCCCCCCCCCCCCCCCCallllllllllllllllllllllllllllllllllllllllCCCCCCCCCCCCCCCCCCCCCCCCCCCCCCCCCCCCCCCCCCCC",
"CCCCCCCCCCCCCCCCCCCCCCCCCCCCCCCCCCCCCCCCCCCCC9llllllllllllllllllllllllllllllllllllCCCCCCCCCCCCCCCCCCCCCCCCCCCCCCCCCCCCCCCCCCCCCC",
"CCCCCCCCCCCCCCCCCCCCCCCCCCCCCCCCCCCCCCCCCCCCCCCCalllllllllllllllllllllllllllllgCCCCCCCCCCCCCCCCCCCCCCCCCCCCCCCCCCCCCCCCCCCCCCCCC",
"CCCCCCCCCCCCCCCCCCCCCCCCCCCCCCCCCCCCCCCCCCCCCCCCCCC8lllllllllllllllllllllllgCCCCCCCCCCCCCCCCCCCCCCCCCCCCCCCCCCCCCCCCCCCCCCCCCCCC",
"CCCCCCCCCCCCCCCCCCCCCCCCCCCCCCCCCCCCCCCCCCCCCCCCCCCCCCCC88llllllllllla9CCCCCCCCCCCCCCCCCCCCCCCCCCCCCCCCCCCCCCCCCCCCCCCCCCCCCCCCC",
"CCCCCCCCCCCCCCCCCCCCCCCCCCCCCCCCCCCCCCCCCCCCCCCCCCCCCCCCCCCCCCCCCCCCCCCCCCCCCCCCCCCCCCCCCCCCCCCCCCCCCCCCCCCCCCCCCCCCCCCCCCCCCCCC",
"CCCCCCCCCCCCCCCCCCCCCCCCCCCCCCCCCCCCCCCCCCCCCCCCCCCCCCCCCCCCCCCCCCCCCCCCCCCCCCCCCCCCCCCCCCCCCCCCCCCCCCCCCCCCCCCCCCCCCCCCCCCCCCCC",
"CCCCCCCCCCCCCCCCCCCCCCCCCCCCCCCCCCCCCCCCCCCCCCCCCCCCCCCCCCCCCCCCCCCCCCCCCCCCCCCCCCCCCCCCCCCCCCCCCCCCCCCCCCCCCCCCCCCCCCCCCCCCCCCC",
"CCCCCCCCCCCCCCCCCCCCCCCCCCCCCCCCCCCCCCCCCCCCCCCCCCCCCCCCCCCCCCCCCCCCCCCCCCCCCCCCCCCCCCCCCCCCCCCCCCCCCCCCCCCCCCCCCCCCCCCCCCCCCCCC",
"CCCCCCCCCCCCCCCCCCCCCCCCCCCCCCCCCCCCCCCCCCCCCCCCCCCCCCCCCCCCCCCCCCCCCCCCCCCCCCCCCCCCCCCCCCCCCCCCCCCCCCCCCCCCCCCCCCCCCCCCCCCCCCCC",
"CCCCCCCCCCCCCCCCCCCCCCCCCCCCCCCCCCCCCCCCCCCCCCCCCCCCCCCCCCCCCCCCCCCCCCCCCCCCCCCCCCCCCCCCCCCCCCCCCCCCCCCCCCCCCCCCCCCCCCCCCCCCCCCC",
"CCCCCCCCCCCCCCCCCCCCCCCCCCCCCCCCCCCCCCCCCCCCCCCCCCCCCCCCCCCCCCCCCCCCCCCCCCCCCCCCCCCCCCCCCCCCCCCCCCCCCCCCCCCCCCCCCCCCCCCCCCCCCCCC",
"CCCCCCCCCCCCCCCCCCCCCCCCCCCCCCCCCBBBBCCCCCCCCCCCCCCCCCCCCCCCCCCCCCCCCCCCCCCCCCCCCCCCCCCCCCCCCCCCCCCCCMBBBBCCCCCCCCCCCCCCCCCCCCCC",
"CCCCCCCCCCCCCCCCCCCCCCCCCCCCCCCCCNBBBCCCCCCCCCCCCCCCCCCCCCCCCCCCCCCCCCCCCCCCCCCCCCCCCCCCCCCCCCCCCCCCCBBBBBCCCCCCCCCCCCCCCCCCCCCC",
"CCCCCCCCCCCCCCCCCCCCCCCCCCCCCCCCCBBBBCCCCCCCCCCCCCCCCCCCCCCCCCCCCCCCCCCCCCCCCCCCCCCCCCCCCCCCCCCCCCCCCBBBBBCCCCCCCCCCCCCCCCCCCCCC",
"CCCCCCCCCCCCCCCCCCCCCCCCCCCCCCCCCBBBBCCCCCCCCCCCCCCCCCCCCCCCCCCCCCCCCCCCCCCCCCCCCCCCCCCCCCCCCCCCCCCCCBBBBBCCCCCCCCCCCCCCCCCCCCCC",
"CCCCCCCCCCCCCCCCCCCCCCCCCCCCCCCCCCCCCCCCCCCCCCCCCCCCCCCCCCCCCCCCCCCCCCCCCCCCCCCCCCCCCCCCCCCCCCCCCCCCCCCCCCCCCCCCCCCCCCCCCCCCCCCC",
"CCCCCCCCCCCCCCCCCCCCCCCCCCCCCCCCCCCCCCCCCCCCCCCCCCCCCCCCCCCCCCCCCCCCCCCCCCCCCCCCCCCCCCCCCCCCCCCCCCCCCCCCCCCCCCCCCCCCCCCCCCCCCCCC",
"CCCCCCCCCCCCCCCCCCCCCCCCCCCCCCCCCCCCCCCCCCCCCCCCCCCCCCCCCCCCCCCCCC6zffCCCCCCCCCCCCCCCCufffCCCCCCCCCCCCCCCCCCCCCCCCCCCCCCfffCCCCC",
"CBBBBCCCCCBBNBCCCnBBBCCCC0BBNbCCCBBBBCCCyBBBBCCCCCCCqBBBNCCCCCCuBBBBNMBBNCCCCCCCCCCcBBBBBNBBBCCCCCCCCBBBBBCCCCBBBBCCCNBBBBBBNCCC",
"C0BBBmCCCC4BBNCCCBBBCCCCCBBBMCCCCBBBBCCCCcBBBNCCCCCCNBBBuCCCCCBBBBBBNBBBBBvCCCCCCCBBBBBBBBBBBBxCCCCCCBBBBBCCCCBBBBCyBBBBBBBBBBCC",
"CCBBBBCCCCCBBNwCvBBBCCCC<BBBmCCCCBBBNCCCCCmBBBfCCCCBBBBcCCCCCBBBBBBBBBBBBBMnCCCCyBBBBBBBBBBBBBMuCCCCCBBBBBCCCCNBBNMMBBBBBBBBBBNC",
"CCqBBBbCCCCuNBMCBBBqCCCCNBBB0CCCCBBBBCCCCCCBBBByCCcBBBmCCCCCNBBBBvCCCCCNBBBmCCCCBBBBNcCCCC6NBBBBqCCCCBBBBBCCCCNBBBBBBcCCCxMMBBBC",
"CCCMBBNCCCCCBBBNBBNCCCCCBBBBCCCCCBBBBCCCCCCCBNBBCqBBBBCCCCCxBBBByCCCCCCCuCCCCCCBBBBBrCCCCCCCBBBBBCCCCBBBBBCCCCBBBBBBCCCCCCnBBBBC",
"CCCyBBBfCCCCfBBBBBuCCCCbBBB0CCCCCBBBBCCCCCCCyMBBNBBBBCCCCCCBBBBmCCCCCCCCCCCCCCCBBBBBCCCCCCCCfBBBBCCCCBBBBBCCCCNBBBBCCCCCCCCBBBBC",
"CCCCBBBMCCCCCBBBBBCCCCCBBBBCCCCCCBBBBCCCCCCCCfBBBBBB0CCCCCCBBBBqCCCCCCCCCCCCCCCBBBBCCCCCCCCCCBBBBbCCCBBBBBCCCCBBBBBCCCCCCCCBBBBC",
"CCCCzBBByCCCCBBBBBCCCCuNBBqCCCCCCBBBBCCCCCCCCCBBBBBxCCCCCCCBBBBCCCCCCCCCCCCCCCrBBBBCCCCCCCCCCBBBNbCCCBBBBBCCCCBBBBBCCCCCCCCBBBBC",
"CCCCCBBBBCCCBBBMBBvCCCBBBBCCCCCCCBBBBCCCCCCCCCBBBBBmCCCCCCCBBBBCCCCCCCCCCCCCCCCBBBBCCCCCCCCCCBBBBbCCCBBBBBCCCCBBBBBCCCCCCCCBBBBC",
"CCCCCcBBB4CCBBM0BMMCCyMBByCCCCCCCBBBBCCCCCCCCBBBBBBBxCCCCCCBBBBvCCCCCCCCCCCCCCCNBBBCCCCCCCCCCBBBBbCCCBBBBBCCCCNBBBBCCCCCCCCBBBBC",
"CCCCCCBBBNCfBBMCnMByCBBBBCCCCCCCCBBBBCCCCCCCBBBBBBBBBrCCCCCBBBBBCCCCCCCCCCCCCCCMBBBBCCCCCCCCuBBBBCCCCBBBBBCCCCBBBBBCCCCCCCCBBBBC",
"CCCCCCnBBBfMBBCCCBBBCBBBnCCCCCCCCBBBBCCCCCCcBBBNCCBBBBCCCCC0BBBBmCCCCCCCBc4CCCCnBBBBcCCCCCCqBBBBMCCCCBBBBBCCCCNBBBBCCCCCCCCBBBBC",
"CCCCCCCNBBBNBBCCCBBBBBBMCCCCCCCCCBBBBCCCCC0BBBBCCCyBBBBCCCCCMBBBBNCCCCfBBBBB0CCCBBBBBBCCCCBBBBBMCCCCCBBBBBCCCCBBBBBCCCCCCCCBBBBC",
"CCCCCCCmBBBBBCCCC0BBBBBnCCCCCCCCCBBBBCCCCCBBBBpCCCCxNBBBCCCCCNBBBBBBBBBBBBBcCCCCCBBBBBBBBBBBBBBqCCCCCBBBBBCCCCBBBBBCCCCCCCCBBBBC",
"CCCCCCCCBBBBNCCCCCBBBBNCCCCCCCCCCBBBBCCCCNBBBxCCCCCCmBBBxCCCCCbNBBBBBBBBBBuCCCCCCCBBBBBBBBBBBNCCCCCCCBBBBBCCCCBBBBBCCCCCCCCBBBBC",
"CCCCCCCCMMBB0CCCCCfBNBmCCCCCCCCCCBBBBCCCmNBBmCCCCCCCCBBBMfCCCCCCnBBBBBBBvCCCCCCCCCCCmBBBNBBBqCCCCCCCCBBBBBCCCCNBBBBCCCCCCCCBBBBC",
"CCCCCCCCCCCCCCCCCCCCCCCCCCCCCCCCCCCCCCCCCCCCCCCCCCCCCCCCCCCCCCCCCCCCCCCCCCCCCCCCCCCCCCCCCCCCCCCCCCCCCCCCCCCCCCCCCCCCCCCCCCCCCCCC",
"CCCCCCCCCCCCCCCCCCCCCCCCCCCCCCCCCCCCCCCCCCCCCCCCCCCCCCCCCCCCCCCCCCCCCCCCCCCCCCCCCCCCCCCCCCCCCCCCCCCCCCCCCCCCCCCCCCCCCCCCCCCCCCCC",
"CCCCCCCCCCCCCCCCCCCCCCCCCCCCCCCCCCCCCCCCCCCCCCCCCCCCCCCCCCCCCCCCCCCCCCCCCCCCCCCCCCCCCCCCCCCCCCCCCCCCCCCCCCCCCCCCCCCCCCCCCCCCCCCC",
"CCCCCCCCCCCCCCCCCCCCCCCCCCCCCCCCCCCCCCCCCCCCCCCCCCCCCCCCCCCCCCCCCCCCCCCCCCCCCCCCCCCCCCCCCCCCCCCCCCCCCCCCCCCCCCCCCCCCCCCCCCCCCCCC",
"CCCCCCCCCCCCCCCCCCCCCCCCCCCCCCCCCCCCCCCCCCCCCCCCCCCCCCCCCCCCCCCCCCCCCCCCCCCCCCCCCCCCCCCCCCCCCCCCCCCCCCCCCCCCCCCCCCCCCCCCCCCCCCCC",
"CCCCCCCCCCCCCCCCCCCCCCCCCCCCCCCCCCCCCCCCCCCCCCCCCCCCCCCCCCCCCCCCCCCCCCCCCCCCCCCCCCCCCCCCCCCCCCCCCCCCCCCCCCCCCCCCCCCCCCCCCCCCCCCC",
"CCCCCCCCCCCCCCCCCCCCCCCCCCCCCCCCCCCC:;CCCCCCCCCC:CCCCCCCCCCCCCCCCCCCCCCCCCCCCCCCC:.CCCCCCCCCCCCCCCCCCCCCCC:CCCCCCCCCCCCCCCCCCCCC",
"CCCCCCCCCCCCCCCCCCCCCCCCCCCCCCCCCC:$C#:CCCCCCCCC:CCCCCCCCCCCCCCCCCCCCCCCCCCCCCCCC:CCCCCCCCCCCCCCCCCCC;CCCC*CCCCCCCCCCCCCCCCCCCCC",
"CCCCCCCCCCCCCCCCCCCCCCCCCCCCCCCCCC:CCCXCCCCCCCCC:CCCCCCCCCCCCCCCCCCCCCCCCCCCCCCCC:CCCCCCCCCCCCCCCCCC@#CCCCCCCCCCCCCCCCCCCCCCCCCC",
"CCCCCCCCCX::*CC$%C#:&CCCCCC:C#:CCC:CCCCCCCCC%:*$:CCCCC&#C&:&CCC&C&:CC@::@CCCC$:=$:CC&=CCC-@CCC@::CC$:::oCo:CCCO;:@CCC:CC-:OCCCCC",
"CCCCCCCC:$CC:CC$:-CC:OCCCCC:-CCCCC:$CCCCCCC;%CC*:CCCCC-&&CC:#CO-*CCC:@CC=@CC-%CC&:CC:CCCC;oCC:#CCoCC:CCCC;$CC=$CC&&CC:&%CC:CCCCC",
"CCCCCCC;OCCC:CC::CCC:OCCCCC:CCCCC:%:+CC:CC%&CCCo:CCCCC;-CCCo:C$:CCC&&CCC+;C#=CCC.:CC:CCCC:CC*%CCCCCC:CCCC:CCO-CCCC:CC:#CCC:CCCCC",
"CCCCCCC:CCCC:CC:CCCC:CCCCC#;CCCC:CCC:CC;CC:CCCC%&CCCCC:oCCC&&C%*CCC:CCCC+;C:CCCC$&CC:CCCC:CC:CCCCCCC:CCCC:CC:+CCCC:CC:CCCC:CCCCC",
"CCCCCC*$CCC::CC:CCCC:CCCCC#=CCCC:CCCC::CCC:CCCC:CCCCCC:CCCC:CC:CCCC:CCCC&=C:CCCC:XCC:CCC%:CC:CCCCCCC:CCCC:CC:CCCC#;CC:CCCo:CCCCC",
"CCCCCC*=CC$:$CC:CCCC:CCCCC&$CCCC:CCCC::CCC:CCC::CCCCCC:CCC%:CC:CCCC:$CCC:CC:CCC;:CCC:CCC::CC:@CCCCCC:CCCC:CC==CCC:CCX:CCC&&CCCCC",
"CCCCCCC:=&C:CCC:CCCC:CCCCC:CCCCC-:%*;CO:CC-:$;C:CCCCCC:-+:-CCC:CCCCC:=*-CCC&:$:C:CCC;;&@C*CCC:&&-CCC:=;CC:CCC:-&;CCC*$CCC&&CCCCC",
"CCCCCCCCCCCCCCCCCCCCCCCCCCCCCCCCCCCCCCCCCCCCCCCCCCCCC**CCCCCCCCCCCCCCCCCCCCCCCCCCCCCCCCCCCCCCCCCCCCCCCCCCCCCCCCCCCCCCCCCCCCCCCCC",
"CCCCCCCCCCCCCCCCCCCCCCCCCCCCCCCCCCCCCCCCCCCCCCCCCCCCC=$CCCCCCCCCCCCCCCCCCCCCCCCCCCCCCCCCCCCCCCCCCCCCCCCCCCCCCCCCCCCCCCCCCCCCCCCC",
"CCCCCCCCCCCCCCCCCCCCCCCCCCCCCCCCCCCCCCCCCCCCCCCCCCCCCXCCCCCCCCCCCCCCCCCCCCCCCCCCCCCCCCCCCCCCCCCCCCCCCCCCCCCCCCCCCCCCCCCCCCCCCCCC"
};
